<?xml version="1.0" encoding="utf-8"?>
<!-- Svg Vector Icons : http://www.onlinewebfonts.com/icon -->
<!DOCTYPE svg PUBLIC "-//W3C//DTD SVG 1.1//EN" "http://www.w3.org/Graphics/SVG/1.1/DTD/svg11.dtd">
<svg version="1.1" xmlns="http://www.w3.org/2000/svg" xmlns:xlink="http://www.w3.org/1999/xlink" x="0px" y="0px" viewBox="0 0 1000 1000" enable-background="new 0 0 1000 1000" xml:space="preserve">
<metadata> Svg Vector Icons : http://www.onlinewebfonts.com/icon </metadata>
<g><g><path d="M500,10C229.8,10,10,229.9,10,500c0,270.2,219.8,490,490,490c270.2,0,490-219.8,490-490C990,229.9,770.2,10,500,10z M917.9,500c0,95.6-32.5,183.7-86.6,254.2c-15.3-11.9-31.6-44.3-16.3-77.7c15.5-33.7,19.5-111.7,15.9-142c-3.4-30.3-19.1-103.4-62-104.1c-42.8-0.6-72.1-14.8-97.5-65.5c-52.7-105.5,99-125.8,46.2-184.2c-14.8-16.4-91,67.5-102.2-44.4c-0.7-8,6.9-20,17.1-32.5C798.3,159.5,917.9,316,917.9,500L917.9,500z M442.6,86.2c-10,19.5-36.4,27.4-52.4,42.1c-34.9,31.6-49.9,27.2-68.7,57.5c-18.9,30.3-80,74-80,95.9s30.8,47.8,46.2,42.8c15.4-5.1,56.1-4.8,80,3.6c23.9,8.5,199.8,16.9,143.7,165.6c-17.8,47.3-95.6,39.3-116.3,117.5c-3.1,11.5-13.9,60.5-14.5,76.6c-1.3,24.8,17.6,118.3-6.4,118.3c-24,0-88.7-83.7-88.7-98.8s-16.7-68.3-16.7-113.8c0-45.5-77.5-44.8-77.5-105.2c0-54.5,42-81.7,32.6-107.8c-9.2-26-83-26.9-113.8-30.1C163.8,210.8,290.2,107.4,442.6,86.2L442.6,86.2z M368.5,896.6c25.1-13.3,27.7-30.4,50.4-31.3c26-1.2,47.2-10.2,76.6-16.6c26-5.7,72.6-32.1,113.6-35.5c34.6-2.8,102.8,1.8,121.2,35.2C664.3,892.3,585,917.9,500,917.9C454.1,917.9,409.9,910.3,368.5,896.6L368.5,896.6z"/></g></g>
</svg>